
<svg width="150px" height="44px" viewBox="0 0 150 44" version="1.1" xmlns="http://www.w3.org/2000/svg" xmlns:xlink="http://www.w3.org/1999/xlink">
  <!-- Generator: Sketch 49 (51002) - http://www.bohemiancoding.com/sketch -->
  <desc>Created with Sketch.</desc>
  <defs></defs>
  <g id="Page-1" stroke="none" stroke-width="1" fill="none" fill-rule="evenodd">
    <g id="Artboard" transform="translate(-53.000000, -46.000000)" fill="#00D586">
      <g id="LOGO" transform="translate(53.000000, 46.000000)">
        <g id="Green-Logo-Copy-11">
          <path d="M126.547109,0 C115.790782,0 107.040573,8.79331279 107.040573,19.6032092 C107.040573,30.4131056 115.790782,39.2061559 126.547109,39.2061559 C137.303435,39.2061559 146.053644,30.4128431 146.053644,19.6029467 C146.053644,8.79305024 137.303696,0 126.547109,0 Z M138.645807,26.7806065 L149.545777,37.3065851 L143.335187,43.7378393 L131.796314,32.5948789 C130.211945,33.2220913 128.486575,33.5669143 126.682571,33.5669143 C118.991941,33.5669143 112.729979,27.2999641 112.729979,19.6032088 C112.729979,11.9064536 118.991941,5.6392416 126.682571,5.6392416 C134.3732,5.6392416 140.635162,11.9061918 140.635162,19.602947 C140.635162,22.2252031 139.908342,24.6815263 138.645807,26.7806065 Z" id="Green-Q" fill-rule="nonzero"></path>
          <path d="M6.1575179,38.3225806 L0.0357995227,38.3225806 L0.0357995227,2.82096774 L6.1575179,2.82096774 L6.1575179,38.3225806 Z M34.1885442,28.7951613 L16.6825776,28.7951613 C17.5417661,31.9354839 19.6360382,33.6387097 22.6431981,33.6387097 C24.6300716,33.6387097 26.4558473,32.9467742 27.6909308,31.6693548 C27.9594272,31.4564516 28.3353222,30.8709677 28.9260143,30.0193548 L34.0811456,32.1483871 C32.5775656,34.7032258 32.0942721,35.2354839 30.5906921,36.4596774 C28.3890215,38.1629032 25.5966587,39.1209677 22.6431981,39.1209677 C15.7159905,39.1209677 10.3997613,33.6387097 10.3997613,26.5064516 C10.3997613,19.4806452 15.7159905,13.9451613 22.428401,13.9451613 C27.6372315,13.9451613 32.0405728,17.2983871 33.597852,22.4080645 C34.0274463,23.8983871 34.2422434,25.2822581 34.2422434,27.0919355 C34.2422434,27.4645161 34.2422434,27.8903226 34.1885442,28.7951613 Z M16.6825776,24.2709677 L28.1205251,24.2709677 C27.0465394,20.9177419 25.2207637,19.3209677 22.428401,19.3209677 C19.5286396,19.3209677 17.4880668,21.1306452 16.6825776,24.2709677 Z M62.0047733,38.3225806 L55.8830549,38.3225806 L55.8830549,36.8322581 C53.6813842,38.4822581 51.9630072,39.1209677 49.4928401,39.1209677 C42.5119332,39.1209677 36.9809069,33.5322581 36.9809069,26.5064516 C36.9809069,19.533871 42.5119332,13.9451613 49.4928401,13.9451613 C51.9630072,13.9451613 53.6813842,14.583871 55.8830549,16.233871 L55.8830549,14.7435484 L62.0047733,14.7435484 L62.0047733,38.3225806 Z M49.4928401,19.4274194 C45.7875895,19.4274194 43.1563246,22.3548387 43.1563246,26.5064516 C43.1563246,30.7112903 45.7875895,33.6387097 49.6002387,33.6387097 C53.4128878,33.6387097 55.9904535,30.7112903 55.9904535,26.5064516 C55.9904535,22.2483871 53.4128878,19.4274194 49.4928401,19.4274194 Z M78.9200477,19.4274194 C75,19.4274194 72.3687351,22.3016129 72.3687351,26.5064516 C72.3687351,30.7112903 74.8926014,33.6387097 78.8126492,33.6387097 C82.8937947,33.6387097 85.0417661,30.4983871 85.0417661,26.2935484 C85.0417661,22.1419355 82.571599,19.4274194 78.9200477,19.4274194 Z M91.2171838,2.82096774 L91.2171838,26.2403226 C91.2171838,35.6612903 85.1491647,39.1209677 78.7589499,39.1209677 C70.7040573,39.1209677 66.1933174,33.3193548 66.1933174,26.2935484 C66.1933174,19.1080645 71.2410501,13.9451613 78.3830549,13.9451613 C82.7326969,13.9451613 85.0954654,16.233871 85.0954654,16.233871 L85.0954654,2.82096774 L91.2171838,2.82096774 Z M102.923628,14.7435484 L102.923628,38.3225806 L96.8019093,38.3225806 L96.8019093,14.7435484 L102.923628,14.7435484 Z M99.9701671,2.98064516 C102.01074,2.98064516 103.729117,4.68387097 103.729117,6.70645161 C103.729117,8.78225806 102.01074,10.4322581 99.9164678,10.4322581 C97.7684964,10.4322581 96.0501193,8.78225806 96.0501193,6.65322581 C96.0501193,4.63064516 97.7684964,2.98064516 99.9701671,2.98064516 Z" id="leadi"></path>
        </g>
      </g>
    </g>
  </g>
</svg>
